<svg width="30" height="27" viewBox="0 0 30 27" fill="none" xmlns="http://www.w3.org/2000/svg">
<path d="M4.69569 22H17.3043L18 6H4L4.69569 22Z" fill="#9A9A9A" fill-opacity="0.15"/>
<path d="M21.0833 4.32H17.4167V1.92C17.4167 0.861 16.5945 0 15.5833 0H6.41667C5.40547 0 4.58333 0.861 4.58333 1.92V4.32H0.916667C0.409635 4.32 0 4.749 0 5.28V6.24C0 6.372 0.103125 6.48 0.229167 6.48H1.95937L2.66693 22.17C2.71276 23.193 3.52057 24 4.4974 24H17.5026C18.4823 24 19.2872 23.196 19.3331 22.17L20.0406 6.48H21.7708C21.8969 6.48 22 6.372 22 6.24V5.28C22 4.749 21.5904 4.32 21.0833 4.32ZM6.64583 2.16H15.3542V4.32H6.64583V2.16ZM17.282 21.84H4.71797L4.02474 6.48H17.9753L17.282 21.84Z" fill="black"/>
<circle cx="17" cy="19" r="8" fill="#FF9E9E"/>
<path d="M15.8037 21.0967V18.377C15.8037 18.1686 15.7614 17.988 15.6768 17.835C15.5954 17.6787 15.4717 17.5583 15.3057 17.4736C15.1396 17.389 14.9346 17.3467 14.6904 17.3467C14.4626 17.3467 14.2624 17.3857 14.0898 17.4639C13.9206 17.542 13.7871 17.6445 13.6895 17.7715C13.5951 17.8984 13.5479 18.0352 13.5479 18.1816H12.6445C12.6445 17.9928 12.6934 17.8057 12.791 17.6201C12.8887 17.4346 13.0286 17.2669 13.2109 17.1172C13.3965 16.9642 13.6178 16.8438 13.875 16.7559C14.1354 16.6647 14.4251 16.6191 14.7441 16.6191C15.1283 16.6191 15.4668 16.6842 15.7598 16.8145C16.056 16.9447 16.2871 17.1416 16.4531 17.4053C16.6224 17.6657 16.707 17.9928 16.707 18.3867V20.8477C16.707 21.0234 16.7217 21.2106 16.751 21.4092C16.7835 21.6077 16.8307 21.7786 16.8926 21.9219V22H15.9502C15.9046 21.8958 15.8688 21.7575 15.8428 21.585C15.8167 21.4092 15.8037 21.2464 15.8037 21.0967ZM15.96 18.7969L15.9697 19.4316H15.0566C14.7995 19.4316 14.57 19.4528 14.3682 19.4951C14.1663 19.5342 13.9971 19.5944 13.8604 19.6758C13.7236 19.7572 13.6195 19.8597 13.5479 19.9834C13.4762 20.1038 13.4404 20.2454 13.4404 20.4082C13.4404 20.5742 13.4779 20.7256 13.5527 20.8623C13.6276 20.999 13.7399 21.1081 13.8896 21.1895C14.0426 21.2676 14.2298 21.3066 14.4512 21.3066C14.7279 21.3066 14.972 21.248 15.1836 21.1309C15.3952 21.0137 15.5628 20.8704 15.6865 20.7012C15.8135 20.5319 15.8818 20.3675 15.8916 20.208L16.2773 20.6426C16.2546 20.7793 16.1927 20.9307 16.0918 21.0967C15.9909 21.2627 15.8558 21.4222 15.6865 21.5752C15.5205 21.7249 15.3219 21.8503 15.0908 21.9512C14.863 22.0488 14.6058 22.0977 14.3193 22.0977C13.9613 22.0977 13.6471 22.0277 13.377 21.8877C13.11 21.7477 12.9017 21.5605 12.752 21.3262C12.6055 21.0885 12.5322 20.8232 12.5322 20.5303C12.5322 20.2471 12.5876 19.998 12.6982 19.7832C12.8089 19.5651 12.9684 19.3844 13.1768 19.2412C13.3851 19.0947 13.6357 18.984 13.9287 18.9092C14.2217 18.8343 14.5488 18.7969 14.9102 18.7969H15.96ZM19.0594 14.5V22H18.1512V14.5H19.0594ZM21.441 14.5V22H20.5328V14.5H21.441Z" fill="black"/>
</svg>
