<svg width="22" height="24" viewBox="0 0 22 24" fill="none" xmlns="http://www.w3.org/2000/svg">
<path d="M4.69569 22H17.3043L18 6H4L4.69569 22Z" fill="#9A9A9A" fill-opacity="0.15"/>
<path d="M21.0833 4.32H17.4167V1.92C17.4167 0.861 16.5945 0 15.5833 0H6.41667C5.40547 0 4.58333 0.861 4.58333 1.92V4.32H0.916667C0.409635 4.32 0 4.749 0 5.28V6.24C0 6.372 0.103125 6.48 0.229167 6.48H1.95937L2.66693 22.17C2.71276 23.193 3.52057 24 4.4974 24H17.5026C18.4823 24 19.2872 23.196 19.3331 22.17L20.0406 6.48H21.7708C21.8969 6.48 22 6.372 22 6.24V5.28C22 4.749 21.5904 4.32 21.0833 4.32ZM6.64583 2.16H15.3542V4.32H6.64583V2.16ZM17.282 21.84H4.71797L4.02474 6.48H17.9753L17.282 21.84Z" fill="black"/>
</svg>
