<svg width="113" height="60" viewBox="0 0 113 60" fill="none" xmlns="http://www.w3.org/2000/svg">
<rect x="44.8061" y="29.942" width="58.233" height="34.4179" rx="10" transform="rotate(-30.9424 44.8061 29.942)" fill="#4CADC2"/>
<rect x="4.79004" y="16.6975" width="58.233" height="34.4179" rx="10" transform="rotate(8 4.79004 16.6975)" fill="#C24C4C"/>
<path d="M17.638 31.6212C17.5466 31.9811 17.4663 32.308 17.3971 32.6017C17.3434 32.8933 17.2931 33.1528 17.2462 33.3803C17.2036 33.6388 17.1645 33.8652 17.1287 34.0595C17.0972 34.2849 17.0624 34.5422 17.0242 34.8316C16.9816 35.09 16.9245 35.4136 16.8529 35.8024C16.7946 36.1735 16.7229 36.6175 16.6377 37.1343C16.4096 36.409 16.1026 35.8526 15.7168 35.465C15.3288 35.062 14.9472 34.7606 14.572 34.5609C14.1305 34.3389 13.669 34.1986 13.1874 34.1401C12.3323 34.1183 11.7311 34.2185 11.3836 34.4409C11.0362 34.6633 10.8191 34.9147 10.7323 35.1952C10.6856 35.3122 10.6355 35.4612 10.5821 35.6423C10.542 35.8057 10.5106 35.9758 10.4881 36.1525C10.4811 36.3271 10.4973 36.4984 10.5367 36.6664C10.5761 36.8344 10.6653 36.9639 10.8043 37.0548C10.8925 37.1213 11.1089 37.2013 11.4534 37.2949C11.7957 37.3731 12.2032 37.4657 12.6758 37.5728C13.1618 37.6623 13.6731 37.764 14.2098 37.8779C14.762 37.9897 15.2832 38.1058 15.7735 38.2262C16.2638 38.3466 16.6922 38.4758 17.0587 38.6136C17.4252 38.7514 17.6734 38.8901 17.8035 39.0296C17.9181 39.1713 18.048 39.366 18.1933 39.6139C18.3519 39.844 18.4761 40.1106 18.566 40.4135C18.6692 40.6988 18.7282 41.0061 18.7429 41.3354C18.7709 41.647 18.7293 41.9684 18.6181 42.2996C18.5068 42.6308 18.2995 42.9519 17.9961 43.2628C17.7081 43.5715 17.2976 43.8501 16.7645 44.0986C16.1429 44.391 15.5238 44.5333 14.9073 44.5252C14.2908 44.5172 13.7142 44.4562 13.1775 44.3423C12.6563 44.2262 12.1981 44.1092 11.8028 43.9912C11.4053 43.8577 11.1314 43.8173 10.9811 43.87C10.8152 43.9248 10.6337 44.0371 10.4367 44.2068C10.2396 44.3765 10.0514 44.5529 9.87202 44.7359C9.70591 44.9012 9.56193 45.0556 9.44007 45.1989C9.31604 45.3268 9.25185 45.3753 9.2475 45.3443C9.24315 45.3134 9.25331 45.2173 9.27798 45.056C9.31813 44.8926 9.35393 44.6982 9.38537 44.4729C9.43012 44.2299 9.46495 43.9726 9.48988 43.7009C9.5281 43.4115 9.54529 43.1408 9.54144 42.8889C9.54412 42.6834 9.54801 42.4304 9.55311 42.1299C9.54709 41.8625 9.54119 41.5399 9.53542 41.162C9.54295 40.7665 9.54734 40.2925 9.54859 39.7401C9.68249 40.1315 9.83973 40.4644 10.0203 40.7388C10.2164 41.0111 10.3992 41.2457 10.5689 41.4428C10.7739 41.6664 10.9657 41.8525 11.1444 42.0009C11.4069 42.1849 11.706 42.348 12.0415 42.4902C12.3926 42.6302 12.7403 42.747 13.0848 42.8406C13.4272 42.9187 13.7475 42.9526 14.0458 42.9422C14.3442 42.9319 14.5874 42.8661 14.7755 42.745C14.9636 42.6239 15.1099 42.4298 15.2143 42.1626C15.3343 41.8933 15.4045 41.6073 15.4251 41.3046C15.4457 41.002 15.4297 40.7202 15.3773 40.4593C15.3227 40.183 15.2215 39.9684 15.0738 39.8156C14.9658 39.7203 14.7296 39.6115 14.3652 39.4892C14.0164 39.3646 13.5957 39.2344 13.1033 39.0985C12.6263 38.9604 12.1173 38.8189 11.5762 38.6741C11.0506 38.527 10.5483 38.3767 10.0691 38.2232C9.60325 38.052 9.20919 37.8865 8.88693 37.7266C8.57798 37.5492 8.39607 37.3775 8.3412 37.2116C8.27546 36.9684 8.2142 36.7009 8.15741 36.4091C8.09844 36.1018 8.07151 35.7979 8.07661 35.4974C8.09501 35.1792 8.162 34.87 8.27759 34.5698C8.40865 34.2673 8.6236 34.0005 8.92244 33.7691C9.12166 33.6149 9.39486 33.4818 9.74204 33.3699C10.0892 33.258 10.4794 33.1716 10.9127 33.1107C11.3437 33.0344 11.7946 32.9868 12.2653 32.9679C12.7339 32.9337 13.1814 32.9181 13.6079 32.9213C14.0476 32.9068 14.4431 32.9143 14.7944 32.9439C15.1612 32.9712 15.4417 33.0028 15.6361 33.0386C15.8636 33.0855 16.0968 33.0606 16.3356 32.9639C16.5457 32.8871 16.7637 32.7539 16.9895 32.5644C17.2153 32.3748 17.4315 32.0604 17.638 31.6212ZM17.7475 27.1799C18.1121 27.1918 18.4436 27.1925 18.7419 27.1822C19.0381 27.1563 19.2878 27.137 19.4911 27.1242C19.7254 27.107 19.9276 27.0865 20.0978 27.0626C20.3277 27.0145 20.5953 26.9532 20.9004 26.8788C21.1591 26.8109 21.4708 26.7276 21.8356 26.629C22.2159 26.5282 22.6482 26.4044 23.1325 26.2574C22.9178 26.4138 22.7418 26.5648 22.6044 26.7103C22.4649 26.8404 22.3575 26.9738 22.282 27.1106C22.1933 27.2651 22.1267 27.4086 22.0822 27.5411C22.0331 27.7531 22.0067 28.1828 22.003 28.8303C21.9863 29.3849 21.9833 30.2058 21.9941 31.293C22.0204 32.378 22.0612 33.8476 22.1167 35.7016C22.5954 35.0663 23.0628 34.5746 23.5188 34.2265C23.9881 33.8608 24.4074 33.5888 24.7768 33.4107C25.206 33.2084 25.614 33.08 26.0008 33.0257C26.487 33.0047 26.9961 33.0909 27.5282 33.2843C28.0736 33.4601 28.5869 33.6878 29.068 33.9673C29.5645 34.2447 30.0024 34.5539 30.3817 34.8951C30.7765 35.2341 31.0642 35.5408 31.2447 35.8152C31.3659 36.0033 31.4492 36.2598 31.4949 36.5847C31.5384 36.8942 31.5553 37.2389 31.5456 37.619C31.5359 37.999 31.5041 38.3901 31.4501 38.7921C31.3962 39.1942 31.339 39.573 31.2785 39.9286C31.2335 40.2821 31.1908 40.5958 31.1504 40.8697C31.1078 41.1281 31.0864 41.3126 31.0862 41.4231C31.0878 41.6595 31.1348 41.8817 31.2272 42.0896C31.2997 42.2688 31.4208 42.4569 31.5905 42.6539C31.758 42.8355 31.9908 42.9763 32.2889 43.0765C32.068 43.076 31.8326 43.0854 31.5829 43.1047C31.3464 43.1064 31.1188 43.1147 30.9 43.1296C30.6503 43.149 30.4016 43.176 30.154 43.2108L29.3185 43.3282C29.0555 43.3652 28.7548 43.4154 28.4166 43.4787C28.0762 43.5265 27.7059 43.5864 27.3058 43.6584C27.5115 43.5506 27.6831 43.424 27.8204 43.2784C27.9556 43.1174 28.0686 42.9674 28.1595 42.8284C28.2637 42.6718 28.3514 42.5096 28.4225 42.3418C28.467 42.2093 28.5117 41.9663 28.5567 41.6129C28.5995 41.244 28.6281 40.8297 28.6424 40.3701C28.6545 39.8951 28.6402 39.4 28.5994 38.8851C28.574 38.368 28.5133 37.8795 28.4171 37.4196C28.3342 36.9421 28.2048 36.5264 28.0288 36.1725C27.8683 35.8163 27.66 35.5695 27.404 35.4319C26.6338 35.0037 25.9635 34.8375 25.3932 34.9335C24.8362 35.0118 24.3339 35.3111 23.8864 35.8316C23.7246 36.0279 23.5706 36.2231 23.4243 36.4172C23.2913 36.5937 23.1472 36.8033 22.992 37.046C22.8346 37.2733 22.6937 37.5061 22.5694 37.7444C22.6021 37.9765 22.6457 38.2308 22.7003 38.5071C22.7549 38.7834 22.8084 39.052 22.8609 39.3129C22.9177 39.6047 22.9822 39.8954 23.0545 40.1851C23.1485 40.6294 23.2569 41.0639 23.3796 41.4884C23.4783 41.8533 23.5978 42.2546 23.7382 42.6924C23.8765 43.1148 24.0325 43.4952 24.2063 43.8337C24.0008 43.831 23.7908 43.8527 23.5764 43.8986C23.3597 43.929 23.1509 43.9584 22.9497 43.9866C22.7198 44.0347 22.4965 44.074 22.2799 44.1044C22.0809 44.1482 21.8753 44.2008 21.663 44.2621C21.4817 44.3192 21.2849 44.3784 21.0726 44.4398C20.8582 44.4857 20.6536 44.546 20.459 44.6207C20.5947 44.2387 20.7005 43.8688 20.7764 43.511C20.8502 43.1378 20.9073 42.8142 20.9477 42.5403C20.997 42.2178 21.032 41.9052 21.0526 41.6025C21.0664 41.3639 21.0353 40.9185 20.9595 40.2665C20.8969 39.5968 20.8136 38.8354 20.7094 37.9822C20.6031 37.1135 20.4826 36.1995 20.3477 35.2402C20.2129 34.2809 20.0769 33.3691 19.9396 32.5048C19.8024 31.6405 19.6649 30.8866 19.5271 30.2433C19.4049 29.5978 19.3031 29.1545 19.2219 28.9134C19.1252 28.6746 19.0053 28.439 18.8622 28.2066C18.7389 28.0031 18.5858 27.8116 18.4028 27.6322C18.2176 27.4373 17.9992 27.2865 17.7475 27.1799ZM38.3242 31.6251C38.7265 31.5685 39.1552 31.5872 39.6102 31.681C40.063 31.7594 40.5068 31.8863 40.9418 32.0619C41.3745 32.222 41.7718 32.4107 42.1337 32.6281C42.5089 32.8278 42.8211 33.0285 43.0704 33.2301C43.5159 33.5935 43.8583 34.1213 44.0976 34.8135C44.3502 35.4881 44.4823 36.2032 44.4938 36.959C44.5032 37.6992 44.3833 38.4182 44.1342 39.1159C43.8852 39.8136 43.4807 40.3596 42.9207 40.7539C42.5179 41.0314 42.1163 41.2614 41.716 41.4439C41.3156 41.6264 40.9263 41.7758 40.5482 41.892C40.1701 42.0083 39.8108 42.0903 39.4704 42.1382C39.13 42.186 38.8349 42.2196 38.5852 42.2389C38.1167 42.2732 37.6064 42.1792 37.0545 41.957C36.5181 41.7326 35.995 41.4353 35.4854 41.0651C34.9913 40.6928 34.5536 40.2731 34.1724 39.8059C33.789 39.3233 33.5337 38.8543 33.4066 38.3988C33.2246 37.7775 33.1156 37.1143 33.0797 36.4093C33.0437 35.7044 33.1778 35.0307 33.482 34.3884C33.8017 33.7438 34.3366 33.1716 35.0868 32.6717C35.8525 32.1697 36.9317 31.8208 38.3242 31.6251ZM38.8239 40.7379C38.9985 40.745 39.2251 40.6737 39.5039 40.524C39.7805 40.3589 40.0396 40.1253 40.2811 39.8231C40.5381 39.5188 40.7467 39.1502 40.9068 38.7175C41.0801 38.2671 41.1487 37.7446 41.1125 37.1501C41.0785 36.5711 41.0045 36.045 40.8907 35.5719C40.7923 35.0966 40.664 34.6886 40.5057 34.348C40.3452 33.9918 40.179 33.7075 40.0071 33.495C39.8352 33.2825 39.6654 33.1407 39.4976 33.0696C39.215 32.9673 38.8826 32.9035 38.5004 32.8784C38.116 32.8377 37.801 32.8978 37.5553 33.0585C37.4402 33.1378 37.304 33.2911 37.1466 33.5183C36.9892 33.7456 36.8394 34.027 36.6972 34.3625C36.5528 34.6826 36.4305 35.0469 36.3301 35.4555C36.2452 35.8619 36.2012 36.2783 36.198 36.7048C36.1948 37.1312 36.2424 37.5821 36.3408 38.0575C36.4546 38.5306 36.6193 38.9729 36.835 39.3844C37.0484 39.7804 37.3161 40.1136 37.6381 40.3839C37.9734 40.6366 38.3687 40.7546 38.8239 40.7379ZM43.9983 30.4016C44.4825 30.2547 44.8761 30.1362 45.179 30.0463C45.4953 29.9388 45.7518 29.8554 45.9486 29.7962C46.1742 29.7171 46.3467 29.6534 46.4661 29.6051C46.5855 29.5567 46.757 29.4853 46.9803 29.3908C47.1728 29.3006 47.4261 29.194 47.7401 29.071C48.052 28.9325 48.4446 28.7511 48.918 28.5268C48.816 28.6989 48.735 28.8523 48.675 28.987C48.6283 29.104 48.5795 29.2055 48.5285 29.2916C48.4796 29.3931 48.4374 29.4858 48.4019 29.5697C48.3663 29.6536 48.3362 29.7762 48.3116 29.9374C48.298 30.0655 48.2843 30.2489 48.2705 30.4875C48.2546 30.7107 48.2561 31.0024 48.2752 31.3626C49.0368 30.7191 49.7472 30.2169 50.4066 29.856C51.0813 29.4929 51.6742 29.2203 52.185 29.038C52.7865 28.8273 53.337 28.7025 53.8365 28.6639C54.462 28.6233 55.054 28.6821 55.6127 28.8403C56.1847 28.9808 56.7091 29.1753 57.1858 29.4239C57.6626 29.6725 58.0895 29.9596 58.4666 30.2853C58.8437 30.611 59.1512 30.9465 59.3891 31.2917C59.5477 31.5219 59.6751 31.8669 59.7712 32.3267C59.8829 32.7844 59.9061 33.286 59.8407 33.8317C59.7754 34.3774 59.6007 34.9305 59.3166 35.4911C59.0458 36.0341 58.6138 36.4971 58.0208 36.8803C56.9918 37.5298 55.9401 37.9616 54.8657 38.1758C54.4058 38.2719 53.924 38.3239 53.4201 38.3316C52.9318 38.3371 52.4259 38.2741 51.9025 38.1425C51.3946 38.0088 50.8902 37.7878 50.3892 37.4795C49.8862 37.1557 49.4065 36.7182 48.9504 36.1669C48.9375 36.9735 48.9414 37.6751 48.9622 38.2717C48.9962 38.8507 49.0327 39.3348 49.0716 39.7238C49.1192 40.1746 49.1724 40.5537 49.2314 40.861C49.3059 41.1661 49.4145 41.4901 49.5573 41.8329C49.6782 42.1315 49.8365 42.4722 50.0323 42.8549C50.2458 43.2509 50.5001 43.657 50.7952 44.0731C50.698 44.0552 50.5633 44.0505 50.3909 44.0589C50.2362 44.0806 50.0759 44.1189 49.91 44.1738C49.7287 44.2309 49.5241 44.2912 49.2964 44.3547C49.0863 44.4316 48.8541 44.5194 48.5997 44.6183C48.3896 44.6952 48.142 44.7852 47.8567 44.8884C47.589 45.0049 47.3147 45.1303 47.0338 45.2644C47.1757 45.0393 47.2746 44.7888 47.3305 44.5127C47.404 44.2499 47.4565 44.0058 47.4879 43.7805C47.5129 43.5088 47.5301 43.2381 47.5395 42.9686C47.5224 42.7343 47.4836 42.29 47.4232 41.6358C47.3805 40.9949 47.3159 40.2545 47.2294 39.4146C47.1407 38.5593 47.0389 37.6663 46.9239 36.7358C46.8244 35.803 46.7191 34.9421 46.6082 34.153C46.5106 33.3462 46.415 32.6654 46.3212 32.1106C46.2274 31.5557 46.1508 31.2351 46.0914 31.1488C46.0143 31.0492 45.8819 30.9495 45.6943 30.8496C45.5398 30.7609 45.3234 30.6808 45.0452 30.6095C44.7824 30.536 44.4334 30.4667 43.9983 30.4016ZM50.1158 33.8494C50.0575 34.2205 50.0832 34.5719 50.1929 34.9036C50.3026 35.2353 50.5019 35.5308 50.7908 35.7899C51.0952 36.047 51.4958 36.2589 51.9926 36.4258C52.5027 36.575 53.1212 36.6537 53.8482 36.662C54.5752 36.6703 55.1146 36.5787 55.4663 36.3872C55.8181 36.1958 56.0584 35.9411 56.1873 35.6232C56.3295 35.2877 56.4033 34.9144 56.4086 34.5034C56.4118 34.0769 56.4283 33.6328 56.4581 33.171C56.49 32.7248 56.4126 32.286 56.2257 31.8546C56.0367 31.4078 55.8 31.0151 55.5158 30.6764C55.247 30.3354 54.957 30.0685 54.6459 29.8756C54.348 29.665 54.0985 29.5738 53.8974 29.6021C53.4177 29.6695 52.9632 29.8596 52.5338 30.1724C52.1044 30.4852 51.7224 30.8545 51.3878 31.2802C51.0531 31.7059 50.7693 32.156 50.5362 32.6306C50.3164 33.0875 50.1762 33.4938 50.1158 33.8494ZM59.4557 28.2292C59.94 28.0822 60.3336 27.9638 60.6365 27.8739C60.9527 27.7663 61.2093 27.683 61.4061 27.6237C61.6316 27.5447 61.8041 27.481 61.9236 27.4327C62.043 27.3843 62.2144 27.3129 62.4378 27.2184C62.6303 27.1282 62.8835 27.0216 63.1976 26.8986C63.5095 26.7601 63.9021 26.5787 64.3755 26.3544C64.2734 26.5265 64.1924 26.6799 64.1325 26.8146C64.0858 26.9316 64.037 27.0331 63.9859 27.1192C63.9371 27.2207 63.8949 27.3134 63.8594 27.3973C63.8238 27.4812 63.7937 27.6038 63.769 27.765C63.7555 27.8931 63.7418 28.0765 63.728 28.3151C63.712 28.5383 63.7136 28.83 63.7326 29.1902C64.4943 28.5467 65.2047 28.0445 65.864 27.6836C66.5388 27.3205 67.1316 27.0479 67.6425 26.8656C68.244 26.6548 68.7945 26.5301 69.294 26.4915C69.9194 26.4509 70.5115 26.5097 71.0702 26.6679C71.6422 26.8084 72.1666 27.0029 72.6433 27.2515C73.12 27.5001 73.547 27.7872 73.9241 28.1129C74.3012 28.4386 74.6087 28.7741 74.8466 29.1193C75.0051 29.3495 75.1325 29.6945 75.2287 30.1543C75.3404 30.612 75.3635 31.1136 75.2982 31.6593C75.2329 32.2049 75.0582 32.7581 74.7741 33.3187C74.5032 33.8617 74.0713 34.3247 73.4782 34.7079C72.4492 35.3574 71.3975 35.7892 70.3231 36.0033C69.8633 36.0995 69.3814 36.1515 68.8776 36.1592C68.3893 36.1647 67.8834 36.1017 67.36 35.9701C66.852 35.8364 66.3476 35.6154 65.8467 35.3071C65.3436 34.9833 64.864 34.5458 64.4079 33.9945C64.395 34.8011 64.3989 35.5027 64.4196 36.0993C64.4537 36.6783 64.4902 37.1624 64.529 37.5514C64.5766 38.0022 64.6299 38.3813 64.6889 38.6886C64.7633 38.9937 64.872 39.3177 65.0148 39.6605C65.1357 39.9591 65.294 40.2998 65.4898 40.6825C65.7032 41.0785 65.9575 41.4846 66.2527 41.9007C66.1555 41.8828 66.0207 41.878 65.8483 41.8865C65.6936 41.9082 65.5333 41.9465 65.3675 42.0014C65.1861 42.0585 64.9816 42.1188 64.7539 42.1823C64.5438 42.2592 64.3115 42.347 64.0572 42.4459C63.8471 42.5228 63.5994 42.6128 63.3141 42.716C63.0465 42.8325 62.7722 42.9578 62.4913 43.092C62.6332 42.8669 62.7321 42.6164 62.788 42.3403C62.8615 42.0775 62.914 41.8334 62.9454 41.6081C62.9703 41.3364 62.9875 41.0657 62.997 40.7962C62.9798 40.5619 62.9411 40.1176 62.8807 39.4634C62.8379 38.8225 62.7733 38.0821 62.6868 37.2422C62.5982 36.3869 62.4964 35.4939 62.3814 34.5634C62.2818 33.6306 62.1766 32.7697 62.0657 31.9806C61.9681 31.1738 61.8724 30.493 61.7787 29.9382C61.6849 29.3833 61.6083 29.0627 61.5488 28.9764C61.4717 28.8768 61.3394 28.7771 61.1518 28.6772C60.9973 28.5885 60.7809 28.5084 60.5027 28.4371C60.2399 28.3636 59.8909 28.2943 59.4557 28.2292ZM65.5732 31.677C65.5149 32.0481 65.5406 32.3995 65.6504 32.7312C65.7601 33.0629 65.9594 33.3584 66.2483 33.6175C66.5527 33.8746 66.9532 34.0865 67.45 34.2534C67.9602 34.4026 68.5787 34.4813 69.3057 34.4896C70.0326 34.4979 70.572 34.4063 70.9238 34.2148C71.2756 34.0234 71.5159 33.7687 71.6448 33.4508C71.787 33.1153 71.8608 32.742 71.8661 32.331C71.8693 31.9045 71.8858 31.4604 71.9155 30.9986C71.9475 30.5524 71.87 30.1135 71.6832 29.6822C71.4942 29.2354 71.2575 28.8427 70.9732 28.5039C70.7044 28.163 70.4144 27.8961 70.1033 27.7032C69.8055 27.4926 69.556 27.4014 69.3548 27.4297C68.8752 27.4971 68.4207 27.6872 67.9913 28C67.5619 28.3128 67.1799 28.6821 66.8452 29.1078C66.5106 29.5335 66.2267 29.9836 65.9936 30.4582C65.7738 30.9151 65.6337 31.3214 65.5732 31.677ZM82.6388 32.1897C83.072 32.1288 83.4678 32.0259 83.8261 31.8808C84.1247 31.76 84.4013 31.5949 84.6559 31.3855C84.9238 31.1586 85.0791 30.8606 85.1219 30.4917C85.4401 30.5101 85.7107 30.5273 85.9339 30.5432C86.1549 30.5437 86.3449 30.5486 86.504 30.5578C86.6807 30.5803 86.832 30.5906 86.958 30.5886C87.0861 30.6022 87.2375 30.6125 87.412 30.6195C87.5711 30.6287 87.7622 30.6413 87.9854 30.6573C88.2218 30.6556 88.4991 30.664 88.8173 30.6824C88.5808 30.684 88.3442 30.741 88.1075 30.8531C87.8863 30.9631 87.6739 31.0797 87.4704 31.203C87.238 31.3461 87.0244 31.5102 86.8295 31.6954C86.7033 31.8078 86.5604 31.9699 86.4008 32.1817C86.2567 32.3913 86.0342 32.604 85.7332 32.8199C85.4322 33.0358 85.0196 33.2436 84.4954 33.4435C83.9846 33.6258 83.3092 33.7601 82.4693 33.8466C81.4592 33.957 80.5909 33.8976 79.8644 33.6684C79.1358 33.4236 78.5289 33.0908 78.0437 32.6698C77.5563 32.2334 77.1796 31.742 76.9135 31.1956C76.6473 30.6492 76.4717 30.1295 76.3867 29.6366C76.3016 29.1436 76.3758 28.6046 76.6091 28.0196C76.8425 27.4345 77.2061 26.8785 77.7001 26.3515C78.2095 25.8223 78.8469 25.3619 79.6124 24.9703C80.3757 24.5633 81.237 24.2923 82.1963 24.1575C82.7533 24.0792 83.2737 24.0771 83.7575 24.1511C84.2545 24.2075 84.7117 24.3168 85.129 24.4791C85.5617 24.6391 85.9446 24.8378 86.2778 25.075C86.6087 25.2967 86.8943 25.5327 87.1346 25.7829C87.3771 26.0486 87.5908 26.3342 87.7757 26.6395C87.9386 26.9007 88.0838 27.2037 88.2112 27.5487C88.3386 27.8937 88.4129 28.2541 88.4341 28.6298C87.2625 28.826 86.3142 28.9829 85.5891 29.1006C84.8796 29.2161 84.3236 29.3021 83.9213 29.3587L82.8769 29.5055L82.0878 29.6164C81.8093 29.6555 81.4467 29.7143 81.0002 29.7929C80.5537 29.8714 80.0076 29.9718 79.3621 30.0941C79.5265 30.7021 79.7873 31.1546 80.1446 31.4515C80.5152 31.7308 80.8904 31.9305 81.2702 32.0507C81.6986 32.1799 82.1548 32.2262 82.6388 32.1897ZM79.9628 28.3056C80.4623 28.267 80.8756 28.2325 81.2027 28.2023C81.5453 28.17 81.826 28.1463 82.0447 28.1313C82.279 28.1142 82.4658 28.0958 82.605 28.0763L83.1853 27.9947C83.5721 27.9404 84.2883 27.816 85.334 27.6217C85.1919 26.9474 84.972 26.4498 84.6744 26.1287C84.3923 25.8054 84.1078 25.5772 83.8208 25.4439C83.4853 25.3018 83.1297 25.2413 82.754 25.2625C81.7504 25.4193 81.0293 25.7337 80.5907 26.2056C80.1676 26.6753 79.9583 27.3753 79.9628 28.3056ZM88.4715 23.8436C88.7677 23.8178 89.0318 23.7885 89.2639 23.7559C89.5093 23.7057 89.716 23.6608 89.884 23.6214C90.083 23.5777 90.2587 23.5372 90.4113 23.5C90.639 23.4364 90.8734 23.364 91.1145 23.2828C91.3268 23.2214 91.5457 23.1512 91.7712 23.0722C92.0101 22.9755 92.2402 22.8722 92.4614 22.7622C92.4012 23.0073 92.3521 23.2193 92.3141 23.3982C92.2761 23.5771 92.2504 23.7307 92.2368 23.8588C92.21 24.0046 92.2031 24.1239 92.2161 24.2167C92.2159 24.3272 92.2266 24.4598 92.2484 24.6145C92.2699 24.8798 92.3297 25.3053 92.4278 25.8911C93.1345 25.0817 93.7315 24.4456 94.2186 23.9826C94.7213 23.5175 95.1199 23.1538 95.4144 22.8915C95.7664 22.5896 96.0453 22.3847 96.251 22.2769C96.8105 22.1036 97.3318 22.1645 97.8151 22.4595C98.0225 22.5881 98.2298 22.772 98.437 23.0111C98.642 23.2347 98.8357 23.5467 99.0182 23.9471C99.2007 24.3475 99.3642 24.8373 99.5088 25.4166C99.6511 25.9804 99.7556 26.6678 99.8223 27.479C99.5017 27.5556 99.2121 27.6278 98.9534 27.6957C98.7101 27.7615 98.5045 27.8141 98.3365 27.8534C98.1397 27.9127 97.9562 27.9542 97.786 27.9782L97.1691 28.1358C96.9569 28.1972 96.6904 28.2662 96.3698 28.3429C96.0626 28.4018 95.6878 28.486 95.2456 28.5955C95.8216 27.9781 96.1752 27.4629 96.3065 27.05C96.4511 26.6195 96.4894 26.2748 96.4215 26.0161C96.3493 25.7265 96.1741 25.4908 95.8961 25.3089C95.5782 25.1801 95.2523 25.1627 94.9184 25.257C94.6288 25.3293 94.3069 25.5086 93.9527 25.7951C93.5985 26.0815 93.2493 26.5724 92.9052 27.2677C93.0754 28.2536 93.2216 29.0693 93.3438 29.7148C93.4816 30.3582 93.5942 30.8788 93.6817 31.2768C93.7934 31.7344 93.8831 32.0926 93.9511 32.3513C94.0301 32.5769 94.1577 32.8114 94.3339 33.0549C94.4727 33.2563 94.6611 33.4743 94.8992 33.7091C95.1374 33.9439 95.4374 34.17 95.7993 34.3873C95.1141 34.4521 94.5571 34.5304 94.1282 34.6222C93.8673 34.6746 93.6374 34.7227 93.4384 34.7665C93.2262 34.8279 92.9984 34.8914 92.7552 34.9572C92.5429 35.0185 92.292 35.0854 92.0023 35.1576C91.7303 35.2432 91.4274 35.3331 91.0935 35.4274C91.1934 35.2398 91.2657 35.0245 91.3104 34.7815C91.3574 34.554 91.3899 34.3364 91.4081 34.1288C91.4373 33.888 91.45 33.6416 91.4462 33.3897C91.4312 33.1709 91.3933 32.8449 91.3324 32.4117C91.287 31.9762 91.2108 31.4899 91.1037 30.9527C91.0099 30.3979 90.9063 29.8286 90.7927 29.245C90.6769 28.6459 90.5589 28.0866 90.4385 27.567C90.3182 27.0475 90.1999 26.5986 90.0836 26.2205C89.9807 25.8247 89.8874 25.5538 89.8037 25.4078C89.7003 25.233 89.5813 25.0604 89.4469 24.8899C89.3302 24.7328 89.1891 24.5711 89.0238 24.405C88.8562 24.2235 88.6721 24.0363 88.4715 23.8436Z" fill="black"/>
</svg>
