<svg width="17" height="17" viewBox="0 0 17 17" fill="none" xmlns="http://www.w3.org/2000/svg">
<g filter="url(#filter0_i_79_4)">
<circle cx="8.5" cy="8.5" r="7.5" fill="#005F7D"/>
</g>
<circle cx="8.5" cy="8.5" r="8" stroke="white"/>
<path d="M9.18164 10.5977H8.0918C8.0957 10.2227 8.12891 9.91602 8.19141 9.67773C8.25781 9.43555 8.36523 9.21484 8.51367 9.01562C8.66211 8.81641 8.85938 8.58984 9.10547 8.33594C9.28516 8.15234 9.44922 7.98047 9.59766 7.82031C9.75 7.65625 9.87305 7.48047 9.9668 7.29297C10.0605 7.10156 10.1074 6.87305 10.1074 6.60742C10.1074 6.33789 10.0586 6.10547 9.96094 5.91016C9.86719 5.71484 9.72656 5.56445 9.53906 5.45898C9.35547 5.35352 9.12695 5.30078 8.85352 5.30078C8.62695 5.30078 8.41211 5.3418 8.20898 5.42383C8.00586 5.50586 7.8418 5.63281 7.7168 5.80469C7.5918 5.97266 7.52734 6.19336 7.52344 6.4668H6.43945C6.44727 6.02539 6.55664 5.64648 6.76758 5.33008C6.98242 5.01367 7.27148 4.77148 7.63477 4.60352C7.99805 4.43555 8.4043 4.35156 8.85352 4.35156C9.34961 4.35156 9.77148 4.44141 10.1191 4.62109C10.4707 4.80078 10.7383 5.05859 10.9219 5.39453C11.1055 5.72656 11.1973 6.12109 11.1973 6.57812C11.1973 6.92969 11.125 7.25391 10.9805 7.55078C10.8398 7.84375 10.6582 8.11914 10.4355 8.37695C10.2129 8.63477 9.97656 8.88086 9.72656 9.11523C9.51172 9.31445 9.36719 9.53906 9.29297 9.78906C9.21875 10.0391 9.18164 10.3086 9.18164 10.5977ZM8.04492 12.4551C8.04492 12.2793 8.09961 12.1309 8.20898 12.0098C8.31836 11.8887 8.47656 11.8281 8.68359 11.8281C8.89453 11.8281 9.05469 11.8887 9.16406 12.0098C9.27344 12.1309 9.32812 12.2793 9.32812 12.4551C9.32812 12.623 9.27344 12.7676 9.16406 12.8887C9.05469 13.0098 8.89453 13.0703 8.68359 13.0703C8.47656 13.0703 8.31836 13.0098 8.20898 12.8887C8.09961 12.7676 8.04492 12.623 8.04492 12.4551Z" fill="#EFEFEF"/>
<defs>
<filter id="filter0_i_79_4" x="0" y="-4" width="17" height="21" filterUnits="userSpaceOnUse" color-interpolation-filters="sRGB">
<feFlood flood-opacity="0" result="BackgroundImageFix"/>
<feBlend mode="normal" in="SourceGraphic" in2="BackgroundImageFix" result="shape"/>
<feColorMatrix in="SourceAlpha" type="matrix" values="0 0 0 0 0 0 0 0 0 0 0 0 0 0 0 0 0 0 127 0" result="hardAlpha"/>
<feOffset dy="-4"/>
<feGaussianBlur stdDeviation="2"/>
<feComposite in2="hardAlpha" operator="arithmetic" k2="-1" k3="1"/>
<feColorMatrix type="matrix" values="0 0 0 0 0 0 0 0 0 0 0 0 0 0 0 0 0 0 0.25 0"/>
<feBlend mode="normal" in2="shape" result="effect1_innerShadow_79_4"/>
</filter>
</defs>
</svg>
